# xmcd
# 
# Track frame offsets:
#   300
#   18734
#   34267
#   50481
#   67865
#   84100
#   99552
#   118823
#   133966
#   148893
#   167252
#   181711
# 
# Disc length: 2749 seconds
# 
# Revision: 1
# Processed by: cddbd v1.5.2PL0 Copyright (c) Steve Scherf et al.
# Submitted via: Synapstar 1.0 
# 
DISCID=a10ab90c
DTITLE=Various Artist - CB60439
DYEAR=1900
DGENRE=Country
TTITLE0=Gary Allan - Get Off On The Pain
TTITLE1=Reba McEntire - I Keep On Loving You
TTITLE2=Jerrod Niemann - Lover, Lover
TTITLE3=Blake Shelton - All About Tonight
TTITLE4=Josh Turner - All Over Me
TTITLE5=Jaron And The Long Road To Love - Pray For You
TTITLE6=James Wesley - Jackson Hole
TTITLE7=Katie Armiger - Kiss Me Now
TTITLE8=Colt Ford and James Otto - Chicken and Bisuits
TTITLE9=Randy Montana - Ain't Much Left Of Loving You
TTITLE10=Carrie Underwood - Undo It
TTITLE11=Taylor Swift - Untouchable
EXTD=
EXTT0=
EXTT1=
EXTT2=
EXTT3=
EXTT4=
EXTT5=
EXTT6=
EXTT7=
EXTT8=
EXTT9=
EXTT10=
EXTT11=
PLAYORDER=
